HIERARCHY
ROOT Hips
{
    OFFSET 0.000000 0.000000 0.000000
    CHANNELS 6 Xposition Yposition Zposition Zrotation Yrotation Xrotation
    JOINT LeftUpLeg
    {
        OFFSET 8.880786 -10.992074 2.946151
        CHANNELS 3 Zrotation Yrotation Xrotation
        JOINT LeftLeg
        {
            OFFSET 14.694236 -40.372078 0.000000
            CHANNELS 3 Zrotation Yrotation Xrotation
            JOINT LeftFoot
            {
                OFFSET 15.683248 -43.089348 0.000000
                CHANNELS 3 Zrotation Yrotation Xrotation
                JOINT LeftToeBase
                {
                    OFFSET 1.120244 -3.077835 12.895535
                    CHANNELS 3 Zrotation Yrotation Xrotation
                    End Site
                    {
                        OFFSET 0.000000 0.000000 0.000000
                    }
                }
            }
        }
    }
    JOINT RightUpLeg
    {
        OFFSET -9.117230 -10.992074 2.946151
        CHANNELS 3 Zrotation Yrotation Xrotation
        JOINT RightLeg
        {
            OFFSET -14.327125 -39.363480 0.000000
            CHANNELS 3 Zrotation Yrotation Xrotation
            JOINT RightFoot
            {
                OFFSET -15.847331 -43.540169 0.000000
                CHANNELS 3 Zrotation Yrotation Xrotation
                JOINT RightToeBase
                {
                    OFFSET -1.723574 -4.735539 12.914443
                    CHANNELS 3 Zrotation Yrotation Xrotation
                    End Site
                    {
                        OFFSET 0.000000 0.000000 0.000000
                    }
                }
            }
        }
    }
    JOINT Spine
    {
        OFFSET -0.247281 11.260408 -1.116349
        CHANNELS 3 Zrotation Yrotation Xrotation
        JOINT Spine1
        {
            OFFSET -0.110574 11.361895 -0.246773
            CHANNELS 3 Zrotation Yrotation Xrotation
            JOINT Neck1
            {
                OFFSET -0.308128 9.985678 0.547958
                CHANNELS 3 Zrotation Yrotation Xrotation
                JOINT Head
                {
                    OFFSET 0.534017 10.011359 -0.630592
                    CHANNELS 3 Zrotation Yrotation Xrotation
                    End Site
                    {
                        OFFSET 0.000000 0.000000 0.000000
                    }
                }
            }
            JOINT LeftShoulder
            {
                OFFSET 0.000000 0.000000 0.000000
                CHANNELS 3 Zrotation Yrotation Xrotation
                JOINT LeftArm
                {
                    OFFSET 19.807442 7.000975 -1.629313
                    CHANNELS 3 Zrotation Yrotation Xrotation
                    JOINT LeftForeArm
                    {
                        OFFSET 30.490372 -0.000000 0.000000
                        CHANNELS 3 Zrotation Yrotation Xrotation
                        JOINT LeftHand
                        {
                            OFFSET 20.802944 -0.000000 0.000000
                            CHANNELS 3 Zrotation Yrotation Xrotation
                            End Site
                            {
                                OFFSET 0.000000 0.000000 0.000000
                            }
                        }
                    }
                }
            }
            JOINT RightShoulder
            {
                OFFSET 0.000000 0.000000 0.000000
                CHANNELS 3 Zrotation Yrotation Xrotation
                JOINT RightArm
                {
                    OFFSET -16.672035 7.882348 -1.543518
                    CHANNELS 3 Zrotation Yrotation Xrotation
                    JOINT RightForeArm
                    {
                        OFFSET -34.468658 -0.000000 -0.000000
                        CHANNELS 3 Zrotation Yrotation Xrotation
                        JOINT RightHand
                        {
                            OFFSET -20.492107 -0.000000 0.000000
                            CHANNELS 3 Zrotation Yrotation Xrotation
                            End Site
                            {
                                OFFSET 0.000000 0.000000 0.000000
                            }
                        }
                    }
                }
            }
        }
    }
}
MOTION
Frames: 7
Frame Time: 0.016667
-18.637245 87.703819 23.206387 -16.989016 -54.463326 27.265995 23.693613 -28.804710 -62.556923 11.241804 18.051411 63.564304 -0.212300 -8.325806 4.929202 1.132400 -6.758504 -19.002008 25.482803 0.656800 7.616097 -4.509103 -12.808704 38.656723 0.421600 -12.255600 -9.288200 -0.818899 5.774298 -16.131001 -14.777075 25.763884 12.497578 -4.506700 6.589602 0.197800 -10.906831 1.027871 17.831535 2.179301 -0.390200 6.588902 0.000000 0.000000 0.000000 -95.191200 31.752399 15.478000 149.637497 -41.202099 -108.352295 0.000000 0.000000 -44.075298 0.000000 0.000000 0.000000 88.397812 33.279015 33.699413 -81.963333 59.754551 -53.045830 0.000000 0.000000 -83.360901 
-18.750132 87.962326 23.113255 -22.653048 -57.024918 32.156036 25.930098 -25.989601 -62.732201 11.908304 18.351606 65.697937 -0.120000 -7.736506 7.851400 0.872000 -5.953900 -16.650600 25.162504 1.168100 5.227402 -4.710899 -13.050697 39.558411 0.395200 -14.239604 -14.819101 -0.487800 4.478204 -12.426003 -15.440220 25.977261 11.679837 -5.167003 6.636702 0.360700 -11.060831 3.132362 17.775261 1.811901 0.195100 6.309506 0.000000 0.000000 0.000000 -95.228508 33.578201 13.585598 149.284317 -41.498997 -108.119026 0.000000 0.000000 -47.074799 0.000000 0.000000 0.000000 88.839516 38.632008 36.002903 -86.118927 59.943020 -56.639519 0.000000 0.000000 -81.150505 
-18.857941 87.982086 23.048908 -27.880009 -60.548431 36.263008 26.107609 -22.829109 -61.340504 12.448499 18.573898 67.403397 -0.101500 -8.049804 9.051309 0.763900 -5.581600 -15.575104 23.578600 2.153798 3.495400 -4.746702 -13.092699 39.716610 0.181400 -15.251802 -19.646706 -0.394700 4.033900 -11.172108 -17.225769 26.855139 11.367552 -5.544702 6.766701 0.010100 -11.167946 5.080777 17.474148 1.419999 0.744600 6.083100 0.000000 0.000000 0.000000 -95.125618 35.306705 11.676702 148.130005 -42.443302 -107.346992 0.000000 0.000000 -51.023800 0.000000 0.000000 0.000000 88.786209 44.079411 37.584702 -89.083725 59.996834 -59.206444 0.000000 0.000000 -80.633598 
-18.931318 87.593750 23.066404 -33.618008 -63.219025 39.945023 25.841509 -20.345806 -58.539722 12.696093 18.669697 68.178871 -0.132500 -8.205800 8.417405 0.700400 -5.349300 -14.907495 22.200403 2.083400 2.477000 -4.855700 -13.219501 40.195717 -0.696600 -11.368808 -23.693302 -0.367000 3.891602 -10.771800 -17.892859 27.064686 12.138969 -5.535502 6.698002 -0.340100 -11.630750 7.296125 16.853010 1.119400 1.356701 5.726903 0.000000 0.000000 0.000000 -95.539497 36.710396 9.278200 145.929398 -44.136993 -105.837799 0.000000 0.000000 -55.568111 0.000000 0.000000 0.000000 88.215477 47.944698 39.173183 -91.646759 59.989853 -61.426056 0.000000 0.000000 -80.689903 
-19.028402 87.467316 23.297827 -39.849003 -66.121712 45.044975 24.878603 -17.930908 -54.916412 12.430600 18.566801 67.347290 -0.228800 -8.581498 4.768099 1.039701 -6.485000 -18.198393 20.420609 2.165001 -0.058000 -5.199802 -13.605301 41.678802 -0.558600 -13.523204 -24.719009 -0.020600 0.927200 -2.548601 -19.668886 26.848896 11.481380 -4.893000 6.557802 -0.563300 -12.355639 9.655119 15.860068 0.741500 2.008600 5.626998 0.000000 0.000000 0.000000 -96.238487 37.561905 6.191201 142.527695 -46.499001 -103.418198 0.000000 0.000000 -60.302704 0.000000 0.000000 0.000000 87.388702 49.405704 41.264191 -93.837944 59.944324 -63.323143 0.000000 0.000000 -79.442207 
-19.415043 86.997139 23.642136 -47.749012 -68.527802 51.263008 23.596405 -15.348403 -49.471615 11.937103 18.363895 65.789322 -0.219900 -9.681300 -1.809001 1.531702 -7.813706 -22.149708 19.082001 3.001499 -1.168700 -5.509503 -13.935605 42.980011 -0.644600 -13.435304 -25.338499 -0.487600 4.477304 -12.423508 -20.996494 26.347403 10.603741 -4.377503 6.390805 -0.287200 -12.615548 12.162640 14.406300 0.597200 2.725501 6.032804 0.000000 0.000000 0.000000 -96.699608 37.561996 2.493191 137.660522 -49.396523 -99.802132 0.000000 0.000000 -64.516205 0.000000 0.000000 0.000000 86.838020 47.968300 43.965405 -95.613739 59.880638 -64.859756 0.000000 0.000000 -76.990700 
-19.972710 86.510590 24.132069 -58.106071 -70.268822 59.117050 22.464800 -12.987902 -41.935001 11.193903 18.028704 63.409714 0.191900 -10.572902 -10.129107 2.225402 -9.320701 -26.803600 18.117205 3.188101 -0.956000 -5.720605 -14.152005 43.849800 -0.473499 -13.646105 -24.123808 -0.148100 2.480300 -6.835104 -21.374233 25.516954 10.117118 -4.209100 6.148100 -0.021000 -12.440975 15.264331 12.850763 0.614800 3.618500 6.651402 0.000000 0.000000 0.000000 -96.618217 37.088608 -2.035302 130.890381 -52.630020 -94.535210 0.000000 0.000000 -68.936813 0.000000 0.000000 0.000000 86.722824 44.344910 47.569004 -95.772133 59.873726 -64.996719 0.000000 0.000000 -73.498611 
